<svg xmlns="http://www.w3.org/2000/svg" width="14" height="14" viewBox="0 0 14 14">
  <path fill="rgb(142,142,147)" fill-rule="evenodd" d="M9.91009426 8.73955536l3.83300018 3.83450031c.21739102.2068634.30557728.51530457.23039246.8058176-.07518482.290514-.30192852.5174513-.59237766.59288502-.29044914.07543373-.59896565-.01248932-.80601502-.22970295L8.74559498 9.9115553l-.00400067.00300026c-.93772316.69419956-2.07478952 1.06655693-3.2414999 1.06150055-3.0333979-.017519-5.48689005-2.47457981-5.49999976-5.50800037-.00855958-1.45150948.56375057-2.84615517 1.58943594-3.87324918C2.61521602.56771243 4.00907469-.00651145 5.46059465.00005584c3.03312159.01751872 5.4863906 2.47435565 5.4994998 5.50749964.00513172 1.16197682-.36292934 2.29490376-1.05000019 3.23199988zM1.09609461 5.47205544c.0106523 2.42660284 1.97341394 4.3920412 4.4000001 4.40600013 1.16106557.00482273 2.27587604-.45472145 3.0962696-1.27633571.82039452-.82161475 1.27828026-1.93710709 1.27173042-3.09816409-.01065254-2.42660284-1.97341394-4.39204096-4.4000001-4.40600001-1.16106557-.00482285-2.27587604.45472109-3.0962696 1.2763356-.82039404.82161474-1.27827978 1.93710708-1.27173042 3.09816408z"/>
</svg>
