<svg xmlns="http://www.w3.org/2000/svg" width="11.557" height="19" viewBox="0 0 11.557 19">
  <path fill="rgb(142,142,147)" fill-rule="evenodd" d="M8.7784729 3c0-1.65685463-1.34313965-3-3-3s-3 1.34314537-3 3v7.00000095c0 1.65685273 1.34313965 3 3 3s3-1.34314727 3-3V3zm1.3338623 4.68380833c0-.39892197.32339478-.72231102.72232056-.72231102s.72232056.32338905.72232056.72231102v2.64846992c-.00143433 2.9110012-2.16799927 5.36645317-5.05618286 5.73032856v1.49277496h1.92614746c.39892578 0 .72232055.32338715.72232055.72230912 0 .39892196-.32339477.72230911-.72232055.72230911H3.13000488c-.39892578 0-.72229004-.32338715-.72229004-.72230911 0-.39892197.32336426-.72230912.72229004-.72230912h1.92617798v-1.49277496C2.16799926 15.69873142.00143433 13.24327946 0 10.33227825V7.68380833c0-.39892197.32339478-.72231102.72232056-.72231102s.72229004.32338905.72229004.72231102v2.64846992c0 2.39352608 1.94033813 4.3338604 4.3338623 4.3338604s4.3338623-1.94033432 4.3338623-4.3338604V7.68380833z"/>
</svg>
